<?xml version="1.0" encoding="utf-8"?>
<!-- Generator: Adobe Illustrator 22.0.0, SVG Export Plug-In . SVG Version: 6.00 Build 0)  -->
<svg version="1.1" id="Layer_1" xmlns="http://www.w3.org/2000/svg" xmlns:xlink="http://www.w3.org/1999/xlink" x="0px" y="0px"
	 viewBox="0 0 504 360" style="enable-background:new 0 0 504 360;" xml:space="preserve">
<style type="text/css">
	.st0{fill:#00284A;}
	.st1{opacity:0.2;fill:#29ABE2;}
	.st2{opacity:0.2;}
	.st3{fill:#29ABE2;}
	.st4{font-family:'Quantify-Bold';}
	.st5{font-size:25.3761px;}
	.st6{fill:#B3B3B3;}
	.st7{fill:#FFFFFF;}
	.st8{opacity:0.3;fill:#29ABE2;}
</style>
<path class="st0" d="M340.5,46H162c-6.6,0-12,5.4-12,12v226c67.7,32.5,135.3,32.5,203,0V58.5C353,51.6,347.4,46,340.5,46z M232,284
	c-1.9,0-3.7-0.8-5-2c-0.7-0.7-1.2-1.5-1.6-2.5c-0.3-0.8-0.5-1.6-0.5-2.5c0-3.9,3.1-7,7-7s7,3.1,7,7S235.9,284,232,284z"/>
<polyline class="st1" points="213,224 213,55 173,55 154,75 154,224 213,224 "/>
<polyline class="st1" points="289,223 289,54 329,54 348,74 348,223 289,223 "/>
<g class="st2">
	<text transform="matrix(1.1262 0 0 1 204 241.5693)" class="st3 st4 st5">tomu.im</text>
</g>
<polygon class="st6" points="292.9,219.3 341,219.3 341,82.3 326.3,68.7 306.5,68.7 292.9,84.3 "/>
<polygon class="st6" points="210.1,219.3 162,219.3 162,82.3 176.7,68.7 196.5,68.7 210.1,84.3 "/>
<path class="st1" d="M276,71l-19.1,0c-2.2,0-3.9,1.7-3.9,3.9V218v5h34V71v-4.4c0-0.4-0.1-0.8-0.2-1.2l-0.4-1.1
	c-0.3-0.8-0.8-1.5-1.5-2v0c-1.2-0.8-2.7-0.9-3.9-0.2l-0.5,0.3c-0.9,0.5-1.6,1.3-2,2.3l-0.3,0.9c-0.1,0.4-0.2,0.8-0.2,1.2V71"/>
<path class="st1" d="M239,72l-19.1,0c-2.2,0-3.9,1.7-3.9,3.9V219v5h34V72v-4.4c0-0.4-0.1-0.8-0.2-1.2l-0.4-1.1
	c-0.3-0.8-0.8-1.5-1.5-2v0c-1.2-0.8-2.7-0.9-3.9-0.2l-0.5,0.3c-0.9,0.5-1.6,1.3-2,2.3l-0.3,0.9c-0.1,0.4-0.2,0.8-0.2,1.2V72"/>
<rect x="254.1" y="84" class="st6" width="31.4" height="135.3"/>
<rect x="217.4" y="84" class="st6" width="31.4" height="135.3"/>
<polygon class="st1" points="156,281 154,278 154,251 203,251 203,297 "/>
<path class="st1" d="M240,251v51l-11.5-17.8L227,282c1.3,1.3,3,2,5,2c3.9,0,7-3.1,7-7s-3.1-7-7-7s-7,3.1-7,7c0,0.9,0.2,1.7,0.5,2.5
	l-1.5-2.3L209,254v-3H240z"/>
<polygon class="st1" points="348,281 350,278 350,251 301,251 301,297 "/>
<path class="st6" d="M156,254v27c13.6,6.5,29.7,11.6,47,16v-43H156z"/>
<polyline class="st1" points="264,302 256,302 256,251 295,251 295,297 "/>
<path class="st6" d="M209,254v44c9,2,21,4,31,4v-48H209z M225,277c0-3.9,3.1-7,7-7s7,3.1,7,7s-3.1,7-7,7c-1.9,0-3.7-0.8-5-2
	c-0.7-0.7-1.2-1.5-1.6-2.5C225.2,278.7,225,277.9,225,277z"/>
<path class="st6" d="M348,254v27c-13.6,6.5-29.7,11.6-47,16v-43H348z"/>
<path class="st6" d="M295,254v44c-9,2-21,4-31,4v-48H295z"/>
<path class="st0" d="M271,269h-39c-2.2,0-4.2,0.9-5.7,2.3c-1.4,1.5-2.3,3.5-2.3,5.7c0,0.1,0,0.1,0,0.2c0.1,3.1,1.9,5.7,4.5,7
	c1.1,0.5,2.2,0.8,3.5,0.8h39c2.2,0,4.2-0.9,5.7-2.3c1.4-1.5,2.3-3.5,2.3-5.7C279,272.6,275.4,269,271,269z M232,284
	c-1.9,0-3.7-0.8-5-2c-0.7-0.7-1.2-1.5-1.6-2.5c-0.3-0.8-0.5-1.6-0.5-2.5c0-3.9,3.1-7,7-7s7,3.1,7,7S235.9,284,232,284z"/>
<rect x="189" y="258" class="st7" width="4" height="4"/>
<rect x="216" y="258" class="st7" width="4" height="4"/>
<rect x="288" y="260" class="st7" width="4" height="4"/>
<rect x="305" y="260" class="st7" width="4" height="4"/>
<circle class="st8" cx="206" cy="70" r="3"/>
<circle class="st8" cx="296" cy="70" r="3"/>
<circle class="st8" cx="246" cy="67" r="3"/>
<circle class="st8" cx="283" cy="66" r="3"/>
<rect x="342" y="120" class="st1" width="5" height="9"/>
<path class="st0" d="M164,249c0-0.2,4.1,4.5,9,4c0,0,4,0,6-4H164z"/>
<path class="st0" d="M318,249c0-0.2,4.1,4.5,9,4c0,0,4,0,6-4H318z"/>
<rect x="342" y="159" class="st1" width="5" height="9"/>
<rect x="253" y="258" class="st1" width="6" height="6"/>
<path class="st1" d="M333,245c0,3.9-3.1,7-7,7c-2.4,0-5.5-2.2-6.7-4H179c-1.2,2-4.5,4-7,4c-3.9,0-7-3.1-7-7s3.1-7,7-7
	c3.5,0,6.4,2.6,6.9,6h140.2c0.5-3.4,3.4-6,6.9-6C329.9,238,333,241.1,333,245z"/>
</svg>
