<?xml version="1.0" encoding="utf-8"?>
<!-- Generator: Adobe Illustrator 22.0.0, SVG Export Plug-In . SVG Version: 6.00 Build 0)  -->
<svg version="1.1" id="Layer_1" xmlns="http://www.w3.org/2000/svg" xmlns:xlink="http://www.w3.org/1999/xlink" x="0px" y="0px"
	 viewBox="0 0 504 360" style="enable-background:new 0 0 504 360;" xml:space="preserve">
<style type="text/css">
	.st0{fill:#006837;}
	.st1{fill:#009245;}
	.st2{fill:#B3B3B3;}
	.st3{fill:#0071BC;}
	.st4{fill:#333333;}
	.st5{fill:#FCEE21;}
	.st6{fill:#4D4D4D;}
	.st7{fill:none;}
	.st8{opacity:0.49;fill:#1A1A1A;}
	.st9{font-family:'Quantify-Bold';}
	.st10{font-size:42.9743px;}
</style>
<g>
	<path class="st0" d="M336.2,58.3H166.8c-10,0-18.1,8.1-18.1,18.1v209c0,0,92.1,55.3,204.1,0v-209C354.3,66.4,346.2,58.3,336.2,58.3
		z M273,287h-43c-3.4,0-6.1-2.8-6.1-6.1s2.8-6.1,6.1-6.1h43c3.4,0,6.1,2.8,6.1,6.1S276.4,287,273,287z"/>
	<path class="st1" d="M153.3,210.2V82c0-3.5,1.2-6.9,3.3-9.6l3-3.9c2.8-3.6,7.1-5.7,11.6-5.7h14.3v3.1h-9.6
		c-5.6,0-10.9,2.4-14.6,6.6v0c-3.2,3.7-5,8.4-5,13.2v124.5H153.3z"/>
	<path class="st2" d="M151.8,256.3v24.6c0,0,21.5,13.8,58.3,18.4v-43H151.8z"/>
	<path class="st2" d="M349.7,256.3v24.6c0,0-21.5,13.8-58.3,18.4v-43H349.7z"/>
	<path class="st2" d="M216.2,256.3v44.5c24,4.4,47.1,4.8,69.1,0v-44.5H216.2z M230,287c-3.4,0-6.1-2.8-6.1-6.1s2.8-6.1,6.1-6.1h41.4
		c3.4,0,6.1,2.8,6.1,6.1s-2.8,6.1-6.1,6.1H230z"/>
	<circle class="st2" cx="168.6" cy="187.2" r="7.7"/>
	<circle class="st2" cx="168.6" cy="102.8" r="7.7"/>
	<circle class="st3" cx="171.7" cy="156.5" r="10.7"/>
	<path class="st2" d="M165.6,184.1c0,0-9.2-59.9,0-79.8l0,0l1.5,1.5c-0.6,13-3.1,56.8,4.6,78.3H165.6z"/>
	<path class="st1" d="M188.6,62.9v35.3l-13.8,15.3v27.6c15.3,0,12.3,12.3,12.3,12.3h13.8v3.1h-15.3c3.1-15.3-13.8-13.8-13.8-13.8
		v-29.2l13.8-15.3V65.9h149.2c2.7,0,5.3,1.2,6.9,3.3l0.2,0.3c2.1,2.6,3.2,5.9,3.2,9.3v163.6h3.1V81c0-4.8-1.5-9.5-4.3-13.4v0
		c-2.1-3-5.5-4.7-9.2-4.7H188.6z"/>
	<path class="st1" d="M231.6,194.9v42.8c0,3.1-0.8,6.2-2.4,8.8v0c-1.3,2.2-3.8,3.6-6.4,3.6h-18.8v-27.6h-35.3v27.6h-15.3v-39.9h3.1
		v35.3h7.7v-27.6h43v27.6h13.8c0,0-1.5-9.2,6.1-7.7v-43H231.6z"/>
	<path class="st3" d="M171.7,167.2v4.6H161c0,0,0-38.4-4.6-47.6c0,0,4.6-4.6,12.3,0C168.1,124.3,168.1,161.1,171.7,167.2z"/>
	<rect x="191.7" y="104.3" class="st4" width="124.3" height="110.5"/>
	<rect x="171.7" y="228.6" class="st2" width="27.6" height="13.8"/>
	<rect x="308.3" y="228.6" class="st5" width="27.6" height="13.8"/>
	<g>
		
			<rect x="299.1" y="75.1" transform="matrix(-4.119597e-07 -1 1 -4.119597e-07 225.4859 389.587)" class="st6" width="16.9" height="13.8"/>
		<rect x="300.6" y="89" class="st2" width="13.8" height="3.1"/>
		<rect x="300.6" y="72.1" class="st2" width="13.8" height="3.1"/>
	</g>
	<g>
		<rect x="280.7" y="228.6" class="st4" width="16.9" height="13.8"/>
		<rect x="279.1" y="233.2" class="st2" width="3.1" height="4.6"/>
		<rect x="296" y="233.2" class="st2" width="3.1" height="4.6"/>
	</g>
	<rect x="334.4" y="233.2" class="st2" width="4.6" height="4.6"/>
	<rect x="305.2" y="233.2" class="st2" width="4.6" height="4.6"/>
	<rect x="314.4" y="191.3" class="st2" width="6.1" height="16.9"/>
	<rect x="314.4" y="171.4" class="st2" width="6.1" height="16.9"/>
	<rect x="314.4" y="151.4" class="st2" width="6.1" height="16.9"/>
	<rect x="314.4" y="131.5" class="st2" width="6.1" height="16.9"/>
	<rect x="314.4" y="111.5" class="st2" width="6.1" height="16.9"/>
	<circle class="st2" cx="335.9" cy="201" r="9.2"/>
	<circle class="st2" cx="334.4" cy="144.2" r="9.2"/>
	<circle class="st2" cx="334.4" cy="93.6" r="9.2"/>
	<rect x="191.7" y="76.7" class="st4" width="12.3" height="16.9"/>
	<rect x="214.7" y="76.7" class="st4" width="12.3" height="16.9"/>
	<rect x="191.7" y="91.1" class="st2" width="12.3" height="4"/>
	<rect x="191.7" y="74.2" class="st2" width="12.3" height="4"/>
	<rect x="214.7" y="74.2" class="st2" width="12.3" height="4"/>
	<rect x="214.7" y="91.1" class="st2" width="12.3" height="4"/>
	<rect x="245.4" y="70.5" class="st6" width="16.9" height="24.6"/>
	<rect x="273" y="70.5" class="st6" width="16.9" height="24.6"/>
	<rect x="245.4" y="65.9" class="st2" width="16.9" height="7.2"/>
	<rect x="273" y="65.9" class="st2" width="16.9" height="7.2"/>
	<rect x="245.4" y="90.5" class="st2" width="16.9" height="7.2"/>
	<rect x="273" y="90.5" class="st2" width="16.9" height="7.2"/>
	<polygon class="st1" points="231.6,225.4 273,225.6 273,230.2 231.6,230.2 	"/>
	<polygon class="st1" points="244,230.2 243.8,245.5 277.6,245.5 277.6,250.1 240.8,250.1 240.8,230.2 	"/>
	<polygon class="st1" points="277.6,245.5 342.1,245.5 345.1,242.4 348.2,242.4 348.2,250.1 277.6,250.1 	"/>
	<rect x="185.5" y="62.9" class="st1" width="3.1" height="3.1"/>
	<rect x="206.1" y="141.3" class="st7" width="99.7" height="58.8"/>
	<text transform="matrix(1 0 0 1 206.1104 171.3848)" class="st8 st9 st10">tomu</text>
	<rect x="267.2" y="230.2" class="st1" width="5.8" height="15.3"/>
</g>
</svg>
