<?xml version="1.0" encoding="UTF-8" standalone="no"?>
<!-- Generator: Adobe Illustrator 22.0.0, SVG Export Plug-In . SVG Version: 6.00 Build 0)  -->

<svg
   xmlns:dc="http://purl.org/dc/elements/1.1/"
   xmlns:cc="http://creativecommons.org/ns#"
   xmlns:rdf="http://www.w3.org/1999/02/22-rdf-syntax-ns#"
   xmlns:svg="http://www.w3.org/2000/svg"
   xmlns="http://www.w3.org/2000/svg"
   xmlns:xlink="http://www.w3.org/1999/xlink"
   xmlns:sodipodi="http://sodipodi.sourceforge.net/DTD/sodipodi-0.dtd"
   xmlns:inkscape="http://www.inkscape.org/namespaces/inkscape"
   version="1.1"
   id="Layer_1"
   x="0px"
   y="0px"
   viewBox="0 0 204.27963 251.67778"
   xml:space="preserve"
   sodipodi:docname="tomu-top.svg"
   width="204.27963"
   height="251.67778"
   inkscape:version="0.92.2pre0 (973e216, 2017-07-25)"><metadata
     id="metadata247"><rdf:RDF><cc:Work
         rdf:about=""><dc:format>image/svg+xml</dc:format><dc:type
           rdf:resource="http://purl.org/dc/dcmitype/StillImage" /><dc:title></dc:title></cc:Work></rdf:RDF></metadata><defs
     id="defs245"><linearGradient
       id="linearGradient4035"
       gradientUnits="userSpaceOnUse"
       x1="335.34549"
       y1="243.34151"
       x2="333.53821"
       y2="54.7873"><stop
         offset="0"
         style="stop-color:#B57737"
         id="stop152-7" /><stop
         offset="0.1305"
         style="stop-color:#CB974F"
         id="stop154-0" /><stop
         offset="0.2756"
         style="stop-color:#DEB464"
         id="stop156-9" /><stop
         offset="0.4205"
         style="stop-color:#ECC974"
         id="stop158-3" /><stop
         offset="0.5636"
         style="stop-color:#F4D57D"
         id="stop160-6" /><stop
         offset="0.703"
         style="stop-color:#F7D980"
         id="stop162-0" /><stop
         offset="0.755"
         style="stop-color:#F0CF79"
         id="stop164-6" /><stop
         offset="0.8429"
         style="stop-color:#DFB565"
         id="stop166-2" /><stop
         offset="0.9551"
         style="stop-color:#C28A45"
         id="stop168-6" /><stop
         offset="1"
         style="stop-color:#B57737"
         id="stop170-1" /></linearGradient><linearGradient
       inkscape:collect="always"
       xlink:href="#SVGID_4_"
       id="linearGradient4144"
       gradientUnits="userSpaceOnUse"
       x1="336.33591"
       y1="243.332"
       x2="334.52859"
       y2="54.777802"
       gradientTransform="translate(-150.7,-90.3)" /><linearGradient
       inkscape:collect="always"
       xlink:href="#SVGID_4_"
       id="linearGradient4146"
       gradientUnits="userSpaceOnUse"
       x1="336.33591"
       y1="243.332"
       x2="334.52859"
       y2="54.777802"
       gradientTransform="translate(-150.7,-58.3)" /><clipPath
       clipPathUnits="userSpaceOnUse"
       id="clipPath4218"><rect
         id="rect4220"
         width="33.452888"
         height="47.976673"
         x="216.2"
         y="256.29999"
         style="stroke-width:1.00283301" /></clipPath><clipPath
       clipPathUnits="userSpaceOnUse"
       id="clipPath4222"><rect
         id="rect4224"
         width="33.452888"
         height="48.150684"
         x="252.40823"
         y="256.12347"
         style="stroke-width:1.00465012" /></clipPath><linearGradient
       inkscape:collect="always"
       xlink:href="#SVGID_3_"
       id="linearGradient4226"
       gradientUnits="userSpaceOnUse"
       x1="103.3778"
       y1="114.8085"
       x2="299.16089"
       y2="332.27841" /><linearGradient
       inkscape:collect="always"
       xlink:href="#SVGID_3_"
       id="linearGradient4228"
       gradientUnits="userSpaceOnUse"
       x1="103.3778"
       y1="114.8085"
       x2="299.16089"
       y2="332.27841" /></defs><sodipodi:namedview
     pagecolor="#ffffff"
     bordercolor="#666666"
     borderopacity="1"
     objecttolerance="10"
     gridtolerance="10"
     guidetolerance="10"
     inkscape:pageopacity="0"
     inkscape:pageshadow="2"
     inkscape:window-width="1920"
     inkscape:window-height="1019"
     id="namedview243"
     showgrid="false"
     inkscape:zoom="1.6162441"
     inkscape:cx="107.97402"
     inkscape:cy="8.5658427"
     inkscape:window-x="0"
     inkscape:window-y="0"
     inkscape:window-maximized="1"
     inkscape:current-layer="Layer_1" /><style
     type="text/css"
     id="style2">
	.st0{fill:#333333;}
	.st1{fill:#006837;}
	.st2{fill:#009245;}
	.st3{fill:url(#SVGID_1_);}
	.st4{fill:url(#SVGID_2_);}
	.st5{fill:url(#SVGID_3_);}
	.st6{fill:#B3B3B3;}
	.st7{fill:#0071BC;}
	.st8{fill:#FCEE21;}
	.st9{fill:#4D4D4D;}
	.st10{fill:url(#SVGID_4_);}
	.st11{fill:url(#SVGID_5_);}
	.st12{fill:url(#SVGID_6_);}
	.st13{opacity:0.49;}
	.st14{fill:#1A1A1A;}
</style><path
     class="st1"
     d="M 187.5,0 H 18.1 C 8.1,0 0,8.1 0,18.1 v 209 c 0,0 92.1,55.3 204.1,0 V 18.1 C 205.6,8.1 197.5,0 187.5,0 Z m -63.2,228.7 h -43 c -3.4,0 -6.1,-2.8 -6.1,-6.1 0,-3.3 2.8,-6.1 6.1,-6.1 h 43 c 3.4,0 6.1,2.8 6.1,6.1 0,3.3 -2.7,6.1 -6.1,6.1 z"
     id="path6"
     inkscape:connector-curvature="0"
     style="fill:#006837" /><path
     class="st2"
     d="M 4.6,151.9 V 23.7 c 0,-3.5 1.2,-6.9 3.3,-9.6 l 3,-3.9 C 13.7,6.6 18,4.5 22.5,4.5 h 14.3 v 3.1 h -9.6 c -5.6,0 -10.9,2.4 -14.6,6.6 v 0 c -3.2,3.7 -5,8.4 -5,13.2 v 124.5 z"
     id="path8"
     inkscape:connector-curvature="0"
     style="fill:#009245" /><linearGradient
     id="SVGID_1_"
     gradientUnits="userSpaceOnUse"
     x1="69.7668"
     y1="145.0677"
     x2="265.5499"
     y2="362.5376"
     gradientTransform="translate(-148.7,-58.3)"><stop
       offset="0"
       style="stop-color:#B57737"
       id="stop10" /><stop
       offset="0.1305"
       style="stop-color:#CB974F"
       id="stop12" /><stop
       offset="0.2756"
       style="stop-color:#DEB464"
       id="stop14" /><stop
       offset="0.4205"
       style="stop-color:#ECC974"
       id="stop16" /><stop
       offset="0.5636"
       style="stop-color:#F4D57D"
       id="stop18" /><stop
       offset="0.703"
       style="stop-color:#F7D980"
       id="stop20" /><stop
       offset="0.755"
       style="stop-color:#F0CF79"
       id="stop22" /><stop
       offset="0.8429"
       style="stop-color:#DFB565"
       id="stop24" /><stop
       offset="0.9551"
       style="stop-color:#C28A45"
       id="stop26" /><stop
       offset="1"
       style="stop-color:#B57737"
       id="stop28" /></linearGradient><path
     class="st3"
     d="m 3.1,198 v 24.6 c 0,0 21.5,13.8 58.3,18.4 v -43 z"
     id="path31"
     inkscape:connector-curvature="0"
     style="fill:url(#SVGID_1_)" /><linearGradient
     id="SVGID_2_"
     gradientUnits="userSpaceOnUse"
     x1="142.3302"
     y1="79.740501"
     x2="338.1134"
     y2="297.21039"
     gradientTransform="translate(-148.7,-58.3)"><stop
       offset="0"
       style="stop-color:#B57737"
       id="stop33" /><stop
       offset="0.1305"
       style="stop-color:#CB974F"
       id="stop35" /><stop
       offset="0.2756"
       style="stop-color:#DEB464"
       id="stop37" /><stop
       offset="0.4205"
       style="stop-color:#ECC974"
       id="stop39" /><stop
       offset="0.5636"
       style="stop-color:#F4D57D"
       id="stop41" /><stop
       offset="0.703"
       style="stop-color:#F7D980"
       id="stop43" /><stop
       offset="0.755"
       style="stop-color:#F0CF79"
       id="stop45" /><stop
       offset="0.8429"
       style="stop-color:#DFB565"
       id="stop47" /><stop
       offset="0.9551"
       style="stop-color:#C28A45"
       id="stop49" /><stop
       offset="1"
       style="stop-color:#B57737"
       id="stop51" /></linearGradient><path
     class="st4"
     d="m 201,198 v 24.6 c 0,0 -21.5,13.8 -58.3,18.4 v -43 z"
     id="path54"
     inkscape:connector-curvature="0"
     style="fill:url(#SVGID_2_)" /><linearGradient
     id="SVGID_3_"
     gradientUnits="userSpaceOnUse"
     x1="103.3778"
     y1="114.8085"
     x2="299.16089"
     y2="332.27841"><stop
       offset="0"
       style="stop-color:#B57737"
       id="stop56" /><stop
       offset="0.1305"
       style="stop-color:#CB974F"
       id="stop58" /><stop
       offset="0.2756"
       style="stop-color:#DEB464"
       id="stop60" /><stop
       offset="0.4205"
       style="stop-color:#ECC974"
       id="stop62" /><stop
       offset="0.5636"
       style="stop-color:#F4D57D"
       id="stop64" /><stop
       offset="0.703"
       style="stop-color:#F7D980"
       id="stop66" /><stop
       offset="0.755"
       style="stop-color:#F0CF79"
       id="stop68" /><stop
       offset="0.8429"
       style="stop-color:#DFB565"
       id="stop70" /><stop
       offset="0.9551"
       style="stop-color:#C28A45"
       id="stop72" /><stop
       offset="1"
       style="stop-color:#B57737"
       id="stop74" /></linearGradient><path
     class="st5"
     d="m 216.2,256.3 v 44.5 c 24,4.4 47.1,4.8 69.1,0 V 256.3 Z M 230,287 c -3.4,0 -6.1,-2.8 -6.1,-6.1 0,-3.3 2.8,-6.1 6.1,-6.1 h 41.4 c 3.4,0 6.1,2.8 6.1,6.1 0,3.3 -2.8,6.1 -6.1,6.1 z"
     id="path77"
     clip-path="url(#clipPath4222)"
     inkscape:connector-curvature="0"
     style="fill:url(#linearGradient4226)"
     transform="translate(-148.7,-58.3)" /><circle
     class="st6"
     cx="19.900005"
     cy="128.89999"
     r="7.6999998"
     id="circle79"
     style="fill:#b3b3b3" /><circle
     class="st6"
     cx="19.900005"
     cy="44.500004"
     r="7.6999998"
     id="circle81"
     style="fill:#b3b3b3" /><circle
     class="st7"
     cx="22.999996"
     cy="98.199997"
     r="10.7"
     id="circle83"
     style="fill:#0071bc" /><path
     class="st6"
     d="m 16.9,125.8 c 0,0 -9.2,-59.9 0,-79.8 v 0 l 1.5,1.5 c -0.6,13 -3.1,56.8 4.6,78.3 z"
     id="path85"
     inkscape:connector-curvature="0"
     style="fill:#b3b3b3" /><path
     class="st2"
     d="M 39.9,4.6 V 39.9 L 26.1,55.2 v 27.6 c 15.3,0 12.3,12.3 12.3,12.3 h 13.8 v 3.1 H 36.9 C 40,82.9 23.1,84.4 23.1,84.4 V 55.2 L 36.9,39.9 V 7.6 h 149.2 c 2.7,0 5.3,1.2 6.9,3.3 l 0.2,0.3 c 2.1,2.6 3.2,5.9 3.2,9.3 v 163.6 h 3.1 V 22.7 c 0,-4.8 -1.5,-9.5 -4.3,-13.4 v 0 c -2.1,-3 -5.5,-4.7 -9.2,-4.7 z"
     id="path87"
     inkscape:connector-curvature="0"
     style="fill:#009245" /><path
     class="st2"
     d="m 82.9,136.6 v 42.8 c 0,3.1 -0.8,6.2 -2.4,8.8 v 0 c -1.3,2.2 -3.8,3.6 -6.4,3.6 H 55.3 V 164.2 H 20 v 27.6 H 4.7 v -39.9 h 3.1 v 35.3 h 7.7 v -27.6 h 43 v 27.6 h 13.8 c 0,0 -1.5,-9.2 6.1,-7.7 v -43 h 4.5 z"
     id="path89"
     inkscape:connector-curvature="0"
     style="fill:#009245" /><path
     class="st7"
     d="m 23,108.9 v 4.6 H 12.3 c 0,0 0,-38.4 -4.6,-47.6 0,0 4.6,-4.6 12.3,0 -0.6,0.1 -0.6,36.9 3,43 z"
     id="path91"
     inkscape:connector-curvature="0"
     style="fill:#0071bc" /><rect
     x="42.999996"
     y="46.000004"
     class="st0"
     width="124.3"
     height="110.5"
     id="rect93"
     style="fill:#333333" /><rect
     x="22.999996"
     y="170.3"
     class="st6"
     width="27.6"
     height="13.8"
     id="rect95"
     style="fill:#b3b3b3" /><rect
     x="159.59999"
     y="170.3"
     class="st8"
     width="27.6"
     height="13.8"
     id="rect97"
     style="fill:#fcee21" /><g
     id="g105"
     transform="translate(-148.7,-58.3)"><rect
       x="299.10001"
       y="75.099998"
       transform="rotate(-90.000024,307.53637,82.050596)"
       class="st9"
       width="16.9"
       height="13.8"
       id="rect99"
       style="fill:#4d4d4d" /><rect
       x="300.60001"
       y="89"
       class="st6"
       width="13.8"
       height="3.0999999"
       id="rect101"
       style="fill:#b3b3b3" /><rect
       x="300.60001"
       y="72.099998"
       class="st6"
       width="13.8"
       height="3.0999999"
       id="rect103"
       style="fill:#b3b3b3" /></g><g
     id="g113"
     transform="translate(-148.7,-58.3)"><rect
       x="280.70001"
       y="228.60001"
       class="st0"
       width="16.9"
       height="13.8"
       id="rect107"
       style="fill:#333333" /><rect
       x="279.10001"
       y="233.2"
       class="st6"
       width="3.0999999"
       height="4.5999999"
       id="rect109"
       style="fill:#b3b3b3" /><rect
       x="296"
       y="233.2"
       class="st6"
       width="3.0999999"
       height="4.5999999"
       id="rect111"
       style="fill:#b3b3b3" /></g><rect
     x="185.7"
     y="174.89999"
     class="st6"
     width="4.5999999"
     height="4.5999999"
     id="rect115"
     style="fill:#b3b3b3" /><rect
     x="156.50002"
     y="174.89999"
     class="st6"
     width="4.5999999"
     height="4.5999999"
     id="rect117"
     style="fill:#b3b3b3" /><linearGradient
     id="SVGID_4_"
     gradientUnits="userSpaceOnUse"
     x1="336.33591"
     y1="243.332"
     x2="334.52859"
     y2="54.777802"><stop
       offset="0"
       style="stop-color:#B57737"
       id="stop129" /><stop
       offset="0.1305"
       style="stop-color:#CB974F"
       id="stop131" /><stop
       offset="0.2756"
       style="stop-color:#DEB464"
       id="stop133" /><stop
       offset="0.4205"
       style="stop-color:#ECC974"
       id="stop135" /><stop
       offset="0.5636"
       style="stop-color:#F4D57D"
       id="stop137" /><stop
       offset="0.703"
       style="stop-color:#F7D980"
       id="stop139" /><stop
       offset="0.755"
       style="stop-color:#F0CF79"
       id="stop141" /><stop
       offset="0.8429"
       style="stop-color:#DFB565"
       id="stop143" /><stop
       offset="0.9551"
       style="stop-color:#C28A45"
       id="stop145" /><stop
       offset="1"
       style="stop-color:#B57737"
       id="stop147" /></linearGradient><circle
     class="st10"
     cx="185.2"
     cy="142.7"
     r="9.1999998"
     id="circle150"
     style="fill:url(#linearGradient4146)" /><linearGradient
     id="SVGID_5_"
     gradientUnits="userSpaceOnUse"
     x1="335.34549"
     y1="243.34151"
     x2="333.53821"
     y2="54.7873"
     gradientTransform="translate(-148.7,-70.3)"><stop
       offset="0"
       style="stop-color:#B57737"
       id="stop152" /><stop
       offset="0.1305"
       style="stop-color:#CB974F"
       id="stop154" /><stop
       offset="0.2756"
       style="stop-color:#DEB464"
       id="stop156" /><stop
       offset="0.4205"
       style="stop-color:#ECC974"
       id="stop158" /><stop
       offset="0.5636"
       style="stop-color:#F4D57D"
       id="stop160" /><stop
       offset="0.703"
       style="stop-color:#F7D980"
       id="stop162" /><stop
       offset="0.755"
       style="stop-color:#F0CF79"
       id="stop164" /><stop
       offset="0.8429"
       style="stop-color:#DFB565"
       id="stop166" /><stop
       offset="0.9551"
       style="stop-color:#C28A45"
       id="stop168" /><stop
       offset="1"
       style="stop-color:#B57737"
       id="stop170" /></linearGradient><circle
     class="st11"
     cx="185.7"
     cy="73.899994"
     r="9.1999998"
     id="circle173"
     style="fill:url(#SVGID_5_)" /><linearGradient
     id="SVGID_6_"
     gradientUnits="userSpaceOnUse"
     x1="335.83081"
     y1="243.3369"
     x2="334.02359"
     y2="54.7826"
     gradientTransform="translate(-148.7,-58.3)"><stop
       offset="0"
       style="stop-color:#B57737"
       id="stop175" /><stop
       offset="0.1305"
       style="stop-color:#CB974F"
       id="stop177" /><stop
       offset="0.2756"
       style="stop-color:#DEB464"
       id="stop179" /><stop
       offset="0.4205"
       style="stop-color:#ECC974"
       id="stop181" /><stop
       offset="0.5636"
       style="stop-color:#F4D57D"
       id="stop183" /><stop
       offset="0.703"
       style="stop-color:#F7D980"
       id="stop185" /><stop
       offset="0.755"
       style="stop-color:#F0CF79"
       id="stop187" /><stop
       offset="0.8429"
       style="stop-color:#DFB565"
       id="stop189" /><stop
       offset="0.9551"
       style="stop-color:#C28A45"
       id="stop191" /><stop
       offset="1"
       style="stop-color:#B57737"
       id="stop193" /></linearGradient><circle
     class="st12"
     cx="185.7"
     cy="35.299999"
     r="9.1999998"
     id="circle196"
     style="fill:url(#SVGID_6_)" /><rect
     x="42.999996"
     y="18.399998"
     class="st0"
     width="12.3"
     height="16.9"
     id="rect198"
     style="fill:#333333" /><rect
     x="66"
     y="18.399998"
     class="st0"
     width="12.3"
     height="16.9"
     id="rect200"
     style="fill:#333333" /><rect
     x="42.999996"
     y="32.799999"
     class="st6"
     width="12.3"
     height="4"
     id="rect202"
     style="fill:#b3b3b3" /><rect
     x="42.999996"
     y="15.899997"
     class="st6"
     width="12.3"
     height="4"
     id="rect204"
     style="fill:#b3b3b3" /><rect
     x="66"
     y="15.899997"
     class="st6"
     width="12.3"
     height="4"
     id="rect206"
     style="fill:#b3b3b3" /><rect
     x="66"
     y="32.799999"
     class="st6"
     width="12.3"
     height="4"
     id="rect208"
     style="fill:#b3b3b3" /><rect
     x="96.699997"
     y="12.2"
     class="st9"
     width="16.9"
     height="24.6"
     id="rect210"
     style="fill:#4d4d4d" /><rect
     x="124.3"
     y="12.2"
     class="st9"
     width="16.9"
     height="24.6"
     id="rect212"
     style="fill:#4d4d4d" /><rect
     x="96.699997"
     y="7.6000013"
     class="st6"
     width="16.9"
     height="7.1999998"
     id="rect214"
     style="fill:#b3b3b3" /><rect
     x="124.3"
     y="7.6000013"
     class="st6"
     width="16.9"
     height="7.1999998"
     id="rect216"
     style="fill:#b3b3b3" /><rect
     x="96.699997"
     y="32.200001"
     class="st6"
     width="16.9"
     height="7.1999998"
     id="rect218"
     style="fill:#b3b3b3" /><rect
     x="124.3"
     y="32.200001"
     class="st6"
     width="16.9"
     height="7.1999998"
     id="rect220"
     style="fill:#b3b3b3" /><polygon
     class="st2"
     points="273,230.2 231.6,230.2 231.6,225.4 273,225.6 "
     id="polygon222"
     style="fill:#009245"
     transform="translate(-148.7,-58.3)" /><polygon
     class="st2"
     points="277.6,245.5 277.6,250.1 240.8,250.1 240.8,230.2 244,230.2 243.8,245.5 "
     id="polygon224"
     style="fill:#009245"
     transform="translate(-148.7,-58.3)" /><polygon
     class="st2"
     points="345.1,242.4 348.2,242.4 348.2,250.1 277.6,250.1 277.6,245.5 342.1,245.5 "
     id="polygon226"
     style="fill:#009245"
     transform="translate(-148.7,-58.3)" /><rect
     x="36.799999"
     y="4.6000013"
     class="st2"
     width="3.0999999"
     height="3.0999999"
     id="rect228"
     style="fill:#009245" /><g
     class="st13"
     id="g238"
     style="opacity:0.49000005"
     transform="translate(-148.7,-58.3)"><path
       class="st14"
       d="m 219,171.4 h -4.7 c -1,0 -1.9,-0.2 -2.8,-0.6 -0.9,-0.4 -1.6,-0.9 -2.2,-1.5 -0.6,-0.6 -1.1,-1.4 -1.5,-2.3 -0.4,-0.9 -0.6,-1.8 -0.6,-2.8 v -18.7 l 5.2,-1.3 v 8.2 h 3 l 1.3,5.2 h -4.3 v 6.7 c 0,0.5 0.2,1 0.6,1.4 0.4,0.4 0.8,0.6 1.3,0.6 h 3.4 z"
       id="path230"
       inkscape:connector-curvature="0"
       style="fill:#1a1a1a" /><path
       class="st14"
       d="m 230.1,149.3 c 1.6,0 3.1,0.3 4.4,0.9 1.4,0.6 2.6,1.4 3.6,2.4 1,1 1.8,2.2 2.4,3.6 0.6,1.4 0.9,2.9 0.9,4.4 0,1.5 -0.3,3 -0.9,4.4 -0.6,1.4 -1.4,2.6 -2.4,3.6 -1,1 -2.2,1.8 -3.6,2.4 -1.4,0.6 -2.9,0.9 -4.4,0.9 -1.6,0 -3.1,-0.3 -4.4,-0.9 -1.3,-0.6 -2.6,-1.4 -3.6,-2.4 -1,-1 -1.8,-2.2 -2.4,-3.6 -0.6,-1.4 -0.9,-2.8 -0.9,-4.4 0,-1.6 0.3,-3.1 0.9,-4.4 0.6,-1.4 1.4,-2.6 2.4,-3.6 1,-1 2.2,-1.8 3.6,-2.4 1.3,-0.6 2.8,-0.9 4.4,-0.9 z m 0,5.2 c -1.7,0 -3.2,0.6 -4.4,1.8 -1.2,1.2 -1.8,2.7 -1.8,4.4 0,1.7 0.6,3.1 1.8,4.3 0.6,0.6 1.2,1.1 2,1.4 0.8,0.3 1.6,0.5 2.4,0.5 0.8,0 1.6,-0.2 2.4,-0.5 0.7,-0.3 1.4,-0.8 2,-1.4 1.2,-1.2 1.8,-2.6 1.8,-4.3 0,-1.7 -0.6,-3.2 -1.8,-4.4 -1.3,-1.2 -2.7,-1.8 -4.4,-1.8 z"
       id="path232"
       inkscape:connector-curvature="0"
       style="fill:#1a1a1a" /><path
       class="st14"
       d="m 266.6,149.3 c 1.2,0 2.3,0.2 3.2,0.7 0.9,0.5 1.6,1.1 2.2,1.9 0.6,0.8 1,1.7 1.3,2.8 0.3,1.1 0.4,2.2 0.4,3.4 v 13.3 h -5.2 v -13.3 c 0,-1 -0.4,-1.9 -1.1,-2.6 -0.7,-0.7 -1.5,-1.1 -2.6,-1.1 -1.1,0 -1.9,0.4 -2.6,1.1 -0.7,0.7 -1.1,1.6 -1.1,2.6 v 13.3 h -5.2 v -13.3 c 0,-1 -0.4,-1.9 -1.1,-2.6 -0.3,-0.4 -0.7,-0.6 -1.2,-0.8 -0.4,-0.2 -0.9,-0.3 -1.4,-0.3 -1.1,0 -1.9,0.4 -2.6,1.1 -0.7,0.7 -1.1,1.6 -1.1,2.6 v 13.3 h -5.2 v -21.5 h 5.2 v 1.9 c 0.8,-0.7 1.7,-1.3 2.6,-1.8 0.9,-0.5 1.8,-0.7 2.8,-0.7 1.3,0 2.3,0.3 3.2,0.8 0.9,0.5 1.6,1.2 2.2,2.1 0.8,-0.8 1.8,-1.5 3,-2.1 1.5,-0.5 2.9,-0.8 4.3,-0.8 z"
       id="path234"
       inkscape:connector-curvature="0"
       style="fill:#1a1a1a" /><path
       class="st14"
       d="m 296.4,149.9 v 21.5 h -5.2 v -1.6 c -0.8,0.7 -1.6,1.2 -2.6,1.6 -1,0.4 -2.1,0.6 -3.3,0.6 -1.4,0 -2.7,-0.3 -3.8,-0.8 -1.1,-0.5 -2.1,-1.3 -2.9,-2.2 -0.8,-0.9 -1.4,-2 -1.9,-3.2 -0.5,-1.2 -0.7,-2.5 -0.7,-4 v -11.9 h 5.2 v 11.9 c 0,1.3 0.5,2.5 1.5,3.5 1,1 2.1,1.5 3.5,1.5 1.4,0 2.6,-0.5 3.6,-1.5 1,-1 1.5,-2.1 1.5,-3.5 v -11.9 z"
       id="path236"
       inkscape:connector-curvature="0"
       style="fill:#1a1a1a" /></g><rect
     x="118.50002"
     y="171.89999"
     class="st2"
     width="5.8000002"
     height="15.3"
     id="rect240"
     style="fill:#009245" /><circle
     id="circle4142"
     r="9.1999998"
     cy="110.7"
     cx="185.2"
     class="st10"
     style="fill:url(#linearGradient4144)" /><path
     id="path4148"
     d="m 216.2,256.3 v 44.5 c 24,4.4 47.1,4.8 69.1,0 V 256.3 Z M 230,287 c -3.4,0 -6.1,-2.8 -6.1,-6.1 0,-3.3 2.8,-6.1 6.1,-6.1 h 41.4 c 3.4,0 6.1,2.8 6.1,6.1 0,3.3 -2.8,6.1 -6.1,6.1 z"
     class="st5"
     clip-path="url(#clipPath4218)"
     inkscape:connector-curvature="0"
     style="fill:url(#linearGradient4228)"
     transform="translate(-148.7,-58.3)" /></svg>